<svg width="24" height="24" viewBox="0 0 24 24" fill="none" xmlns="http://www.w3.org/2000/svg">
<mask id="mask0_902_7346" style="mask-type:alpha" maskUnits="userSpaceOnUse" x="0" y="0" width="24" height="24">
<rect width="24" height="24" fill="#D9D9D9"/>
</mask>
<g mask="url(#mask0_902_7346)">
<path d="M12 17.1553L7.44865 19.8731C7.27918 19.9712 7.10933 20.0124 6.93911 19.9968C6.76887 19.9812 6.61475 19.9244 6.47676 19.8264C6.33879 19.7283 6.23231 19.6002 6.15732 19.4421C6.08231 19.2839 6.07031 19.109 6.12132 18.9174L7.32944 13.8002L3.31131 10.3561C3.16133 10.2269 3.06572 10.0772 3.02448 9.90721C2.98324 9.73715 2.99411 9.57192 3.05709 9.41154C3.12009 9.25113 3.21083 9.12006 3.32932 9.01833C3.44781 8.9166 3.6098 8.85014 3.81527 8.81896L9.11804 8.36004L11.1766 3.52797C11.2516 3.34827 11.3652 3.21535 11.5174 3.1292C11.6697 3.04307 11.8305 3 12 3C12.1695 3 12.3303 3.04307 12.4826 3.1292C12.6348 3.21535 12.7484 3.34827 12.8234 3.52797L14.882 8.36004L20.1847 8.81896C20.3902 8.85014 20.5522 8.9166 20.6707 9.01833C20.7892 9.12006 20.8799 9.25113 20.9429 9.41154C21.0059 9.57192 21.0168 9.73715 20.9755 9.90721C20.9343 10.0772 20.8387 10.2269 20.6887 10.3561L16.6706 13.8002L17.8787 18.9174C17.9297 19.109 17.9177 19.2839 17.8427 19.4421C17.7677 19.6002 17.6612 19.7283 17.5232 19.8264C17.3852 19.9244 17.2311 19.9812 17.0609 19.9968C16.8907 20.0124 16.7208 19.9712 16.5513 19.8731L12 17.1553Z" fill="#FFB800"/>
</g>
</svg>
