<svg width="32" height="48" viewBox="0 0 32 48" fill="none" xmlns="http://www.w3.org/2000/svg">
<path fill-rule="evenodd" clip-rule="evenodd" d="M29.7183 24.2393C31.1669 21.8326 32 19.0136 32 16C32 7.16341 24.8366 0 16 0C7.16341 0 0 7.16341 0 16C0 19.0136 0.833089 21.8326 2.28166 24.2393L16 48L29.7183 24.2393Z" fill="#FFB800"/>
<circle cx="16" cy="16" r="12" fill="#121218"/>
<mask id="mask0_1271_8942" style="mask-type:alpha" maskUnits="userSpaceOnUse" x="6" y="6" width="20" height="20">
<rect x="6" y="6" width="20" height="20" fill="#D9D9D9"/>
</mask>
<g mask="url(#mask0_1271_8942)">
<path d="M18.9167 16.1761L20.407 17.6665V18.9165H16.625V23.4998L16 24.1248L15.375 23.4998V18.9165H11.593V17.6665L13.0834 16.1761V10.1665H12.25V8.9165H19.75V10.1665H18.9167V16.1761ZM13.375 17.6665H18.625L17.6667 16.7082V10.1665H14.3334V16.7082L13.375 17.6665Z" fill="#FFB800"/>
</g>
</svg>
