<svg width="32" height="48" viewBox="0 0 32 48" fill="none" xmlns="http://www.w3.org/2000/svg">
<path fill-rule="evenodd" clip-rule="evenodd" d="M29.7183 24.2393C31.1669 21.8326 32 19.0136 32 16C32 7.16341 24.8366 0 16 0C7.16341 0 0 7.16341 0 16C0 19.0136 0.833089 21.8326 2.28166 24.2393L16 48L29.7183 24.2393Z" fill="#FFB800"/>
<circle cx="16" cy="16" r="12" fill="white"/>
<mask id="mask0_1632_8783" style="mask-type:alpha" maskUnits="userSpaceOnUse" x="6" y="6" width="20" height="20">
<rect x="6" y="6" width="20" height="20" fill="#D9D9D9"/>
</mask>
<g mask="url(#mask0_1632_8783)">
<path d="M15.9999 24.125C14.5918 24.125 13.4411 23.9124 12.548 23.4871C11.6548 23.0619 11.2083 22.5107 11.2083 21.8333C11.2083 21.4273 11.3789 21.0665 11.7203 20.7508C12.0616 20.4351 12.533 20.1758 13.1345 19.9728L13.4935 21.1634C13.2306 21.2596 13.01 21.3678 12.8316 21.488C12.6532 21.6082 12.5373 21.7233 12.4839 21.8333C12.6217 22.1303 13.0317 22.3782 13.7138 22.5769C14.396 22.7756 15.158 22.875 15.9999 22.875C16.8364 22.875 17.5993 22.7756 18.2884 22.5769C18.9775 22.3782 19.3909 22.1303 19.5288 21.8333C19.4753 21.7233 19.3594 21.6095 19.181 21.492C19.0026 21.3744 18.782 21.2649 18.5191 21.1634L18.8861 19.9728C19.4876 20.1758 19.9556 20.4351 20.29 20.7508C20.6243 21.0665 20.7915 21.4273 20.7915 21.8333C20.7915 22.5107 20.345 23.0619 19.4518 23.4871C18.5586 23.9124 17.408 24.125 15.9999 24.125ZM15.9999 19.2035C16.2499 18.7292 16.5298 18.269 16.8396 17.8229C17.1495 17.3769 17.4604 16.9508 17.7724 16.5449C18.2969 15.8622 18.716 15.2441 19.0296 14.6907C19.3431 14.1373 19.4999 13.4487 19.4999 12.625C19.4999 11.6549 19.1591 10.829 18.4775 10.1474C17.7958 9.46577 16.97 9.12496 15.9999 9.12496C15.0298 9.12496 14.204 9.46577 13.5223 10.1474C12.8407 10.829 12.4999 11.6549 12.4999 12.625C12.4999 13.4487 12.658 14.1373 12.9743 14.6907C13.2905 15.2441 13.7082 15.8622 14.2274 16.5449C14.5394 16.9508 14.8503 17.3769 15.1601 17.8229C15.47 18.269 15.7499 18.7292 15.9999 19.2035ZM15.9999 21.3685C15.8631 21.3685 15.7376 21.3234 15.6233 21.2331C15.509 21.1428 15.4241 21.0267 15.3685 20.8846C15.0277 19.9519 14.6222 19.1696 14.1521 18.5376C13.6821 17.9057 13.2285 17.3002 12.7916 16.7211C12.3685 16.1421 12.0058 15.5422 11.7034 14.9214C11.4011 14.3007 11.2499 13.5352 11.2499 12.625C11.2499 11.2949 11.7091 10.1707 12.6273 9.2524C13.5456 8.33413 14.6698 7.875 15.9999 7.875C17.33 7.875 18.4542 8.33413 19.3725 9.2524C20.2907 10.1707 20.7499 11.2949 20.7499 12.625C20.7499 13.5352 20.6022 14.3007 20.3068 14.9214C20.0114 15.5422 19.6452 16.1421 19.2082 16.7211C18.7851 17.3002 18.3351 17.9057 17.8581 18.5376C17.381 19.1696 16.9721 19.9519 16.6313 20.8846C16.5757 21.0267 16.4908 21.1428 16.3765 21.2331C16.2622 21.3234 16.1366 21.3685 15.9999 21.3685ZM15.9999 14.1474C16.4219 14.1474 16.7811 13.9992 17.0776 13.7027C17.3741 13.4062 17.5223 13.047 17.5223 12.625C17.5223 12.203 17.3741 11.8437 17.0776 11.5473C16.7811 11.2508 16.4219 11.1026 15.9999 11.1026C15.5779 11.1026 15.2187 11.2508 14.9222 11.5473C14.6257 11.8437 14.4775 12.203 14.4775 12.625C14.4775 13.047 14.6257 13.4062 14.9222 13.7027C15.2187 13.9992 15.5779 14.1474 15.9999 14.1474Z" fill="#FFB800"/>
</g>
</svg>
