<svg width="20" height="20" viewBox="0 0 20 20" fill="none" xmlns="http://www.w3.org/2000/svg">
<mask id="mask0_721_576" style="mask-type:alpha" maskUnits="userSpaceOnUse" x="0" y="0" width="20" height="20">
<rect width="20" height="20" fill="#D9D9D9"/>
</mask>
<g mask="url(#mask0_721_576)">
<path d="M8.81745 11.7884L6.88154 9.85248C6.76616 9.73709 6.62114 9.67807 6.44645 9.6754C6.27177 9.67272 6.12407 9.73175 6.00335 9.85248C5.88263 9.9732 5.82227 10.1196 5.82227 10.2916C5.82227 10.4636 5.88263 10.6099 6.00335 10.7306L8.2902 13.0175C8.44084 13.1681 8.61659 13.2435 8.81745 13.2435C9.0183 13.2435 9.19405 13.1681 9.34468 13.0175L13.9809 8.38129C14.0963 8.26592 14.1553 8.12089 14.158 7.94621C14.1607 7.77153 14.1016 7.62383 13.9809 7.50311C13.8602 7.38238 13.7138 7.32202 13.5418 7.32202C13.3698 7.32202 13.2234 7.38238 13.1027 7.50311L8.81745 11.7884ZM10.0015 17.9165C8.90659 17.9165 7.8774 17.7088 6.91395 17.2932C5.9505 16.8777 5.11243 16.3137 4.39975 15.6013C3.68705 14.889 3.12284 14.0513 2.7071 13.0882C2.29136 12.1252 2.0835 11.0962 2.0835 10.0013C2.0835 8.90635 2.29127 7.87715 2.70683 6.91371C3.12239 5.95025 3.68634 5.11218 4.3987 4.3995C5.11108 3.68681 5.94878 3.12259 6.91181 2.70686C7.87482 2.29112 8.9038 2.08325 9.99875 2.08325C11.0937 2.08325 12.1229 2.29103 13.0863 2.70659C14.0498 3.12214 14.8879 3.6861 15.6005 4.39846C16.3132 5.11084 16.8774 5.94854 17.2932 6.91157C17.7089 7.87458 17.9168 8.90356 17.9168 9.9985C17.9168 11.0934 17.709 12.1226 17.2935 13.0861C16.8779 14.0495 16.3139 14.8876 15.6016 15.6003C14.8892 16.313 14.0515 16.8772 13.0885 17.2929C12.1255 17.7087 11.0965 17.9165 10.0015 17.9165ZM10.0001 16.6666C11.8613 16.6666 13.4376 16.0207 14.7293 14.7291C16.021 13.4374 16.6668 11.861 16.6668 9.9999C16.6668 8.13879 16.021 6.5624 14.7293 5.27073C13.4376 3.97907 11.8613 3.33323 10.0001 3.33323C8.13903 3.33323 6.56264 3.97907 5.27098 5.27073C3.97931 6.5624 3.33348 8.13879 3.33348 9.9999C3.33348 11.861 3.97931 13.4374 5.27098 14.7291C6.56264 16.0207 8.13903 16.6666 10.0001 16.6666Z" fill="#3BD023"/>
</g>
</svg>
