<svg width="24" height="24" viewBox="0 0 24 24" fill="none" xmlns="http://www.w3.org/2000/svg">
<mask id="mask0_233_9594" style="mask-type:alpha" maskUnits="userSpaceOnUse" x="0" y="0" width="24" height="24">
<rect width="24" height="24" fill="#D9D9D9"/>
</mask>
<g mask="url(#mask0_233_9594)">
<path d="M5.25025 18.8846C5.03775 18.8846 4.85963 18.8127 4.71588 18.6689C4.57213 18.5251 4.50025 18.3469 4.50025 18.1343C4.50025 17.9217 4.57213 17.7436 4.71588 17.6C4.85963 17.4564 5.03775 17.3846 5.25025 17.3846H6.30795V9.92305C6.30795 8.57818 6.72301 7.38908 7.55313 6.35575C8.38326 5.32242 9.44897 4.66153 10.7503 4.37308V3.75C10.7503 3.40278 10.8717 3.10765 11.1145 2.8646C11.3573 2.62153 11.6522 2.5 11.9991 2.5C12.346 2.5 12.6412 2.62153 12.8848 2.8646C13.1284 3.10765 13.2502 3.40278 13.2502 3.75V4.37308C14.5515 4.66153 15.6172 5.32242 16.4473 6.35575C17.2774 7.38908 17.6925 8.57818 17.6925 9.92305V17.3846H18.7502C18.9627 17.3846 19.1408 17.4565 19.2846 17.6003C19.4283 17.7441 19.5002 17.9223 19.5002 18.1349C19.5002 18.3475 19.4283 18.5256 19.2846 18.6692C19.1408 18.8128 18.9627 18.8846 18.7502 18.8846H5.25025ZM11.9985 21.6923C11.5009 21.6923 11.0756 21.5153 10.7224 21.1613C10.3692 20.8073 10.1926 20.3817 10.1926 19.8846H13.8079C13.8079 20.3833 13.6307 20.8093 13.2764 21.1625C12.9221 21.5157 12.4961 21.6923 11.9985 21.6923ZM7.8079 17.3846H16.1926V9.92305C16.1926 8.76535 15.7833 7.77721 14.9647 6.95863C14.1461 6.14003 13.1579 5.73073 12.0002 5.73073C10.8425 5.73073 9.85438 6.14003 9.0358 6.95863C8.2172 7.77721 7.8079 8.76535 7.8079 9.92305V17.3846ZM3.37045 9.91343C3.15443 9.91343 2.97463 9.83234 2.83103 9.67018C2.68744 9.50799 2.62591 9.31729 2.64643 9.09808C2.74771 7.94423 3.04643 6.86346 3.54258 5.85578C4.03873 4.84809 4.68038 3.96348 5.46755 3.20195C5.63293 3.05707 5.81947 2.98495 6.02715 2.9856C6.23483 2.98623 6.40598 3.07277 6.5406 3.2452C6.67522 3.41763 6.73227 3.60513 6.71175 3.8077C6.69123 4.01025 6.59828 4.18909 6.4329 4.34423C5.80855 4.96729 5.30087 5.68556 4.90985 6.49903C4.51882 7.31249 4.27266 8.18781 4.17138 9.12498C4.14446 9.34421 4.05825 9.53043 3.91275 9.68363C3.76723 9.83683 3.58647 9.91343 3.37045 9.91343ZM20.6348 9.91343C20.4156 9.91343 20.2332 9.83683 20.0877 9.68363C19.9422 9.53043 19.856 9.34421 19.8291 9.12498C19.7278 8.18781 19.4832 7.31409 19.0954 6.50383C18.7076 5.69358 18.2015 4.97691 17.5772 4.35383C17.4095 4.19929 17.3128 4.01899 17.287 3.81293C17.2612 3.60688 17.3156 3.41763 17.4502 3.2452C17.5848 3.07277 17.7576 2.98783 17.9685 2.9904C18.1794 2.99297 18.3675 3.06668 18.5329 3.21155C19.3201 3.97308 19.9617 4.85609 20.4579 5.86058C20.954 6.86506 21.2527 7.94423 21.354 9.09808C21.3745 9.31729 21.3129 9.50799 21.1692 9.67018C21.0254 9.83234 20.8473 9.91343 20.6348 9.91343Z" fill="#FFB800"/>
</g>
</svg>
