<svg width="28" height="28" viewBox="0 0 28 28" fill="none" xmlns="http://www.w3.org/2000/svg">
<mask id="mask0_619_4985" style="mask-type:alpha" maskUnits="userSpaceOnUse" x="0" y="0" width="28" height="28">
<rect width="28" height="28" fill="#D9D9D9"/>
</mask>
<g mask="url(#mask0_619_4985)">
<path d="M7.027 20.1744C8.01867 19.4385 9.09895 18.8575 10.2679 18.4312C11.4368 18.0049 12.6808 17.7917 14.0001 17.7917C15.3193 17.7917 16.5633 18.0049 17.7322 18.4312C18.9012 18.8575 19.9814 19.4385 20.9731 20.1744C21.6985 19.3772 22.2733 18.4543 22.6973 17.4058C23.1214 16.3573 23.3334 15.2221 23.3334 14.0001C23.3334 11.4139 22.4244 9.21186 20.6063 7.3938C18.7882 5.57575 16.5862 4.66672 14.0001 4.66672C11.4139 4.66672 9.21186 5.57575 7.3938 7.3938C5.57575 9.21186 4.66672 11.4139 4.66672 14.0001C4.66672 15.2221 4.87874 16.3573 5.30279 17.4058C5.72683 18.4543 6.30157 19.3772 7.027 20.1744ZM14.0001 14.875C12.9351 14.875 12.0369 14.5093 11.3055 13.7779C10.5741 13.0465 10.2084 12.1483 10.2084 11.0834C10.2084 10.0184 10.5741 9.12026 11.3055 8.38885C12.0369 7.65745 12.9351 7.29175 14.0001 7.29175C15.065 7.29175 15.9632 7.65745 16.6946 8.38885C17.426 9.12026 17.7917 10.0184 17.7917 11.0834C17.7917 12.1483 17.426 13.0465 16.6946 13.7779C15.9632 14.5093 15.065 14.875 14.0001 14.875ZM14.0001 25.0834C12.4609 25.0834 11.0172 24.7939 9.66883 24.2151C8.32044 23.6362 7.14741 22.848 6.14976 21.8503C5.15212 20.8527 4.36388 19.6797 3.78504 18.3313C3.20618 16.9829 2.91675 15.5392 2.91675 14.0001C2.91675 12.4609 3.20618 11.0172 3.78504 9.66883C4.36388 8.32044 5.15212 7.14741 6.14976 6.14976C7.14741 5.15212 8.32044 4.36388 9.66883 3.78504C11.0172 3.20618 12.4609 2.91675 14.0001 2.91675C15.5392 2.91675 16.9829 3.20618 18.3313 3.78504C19.6797 4.36388 20.8527 5.15212 21.8503 6.14976C22.848 7.14741 23.6362 8.32044 24.2151 9.66883C24.7939 11.0172 25.0834 12.4609 25.0834 14.0001C25.0834 15.5392 24.7939 16.9829 24.2151 18.3313C23.6362 19.6797 22.848 20.8527 21.8503 21.8503C20.8527 22.848 19.6797 23.6362 18.3313 24.2151C16.9829 24.7939 15.5392 25.0834 14.0001 25.0834Z" fill="#8E8E9D"/>
</g>
</svg>
