<svg width="32" height="48" viewBox="0 0 32 48" fill="none" xmlns="http://www.w3.org/2000/svg">
<path fill-rule="evenodd" clip-rule="evenodd" d="M29.7183 24.2393C31.1669 21.8326 32 19.0136 32 16C32 7.16341 24.8366 0 16 0C7.16341 0 0 7.16341 0 16C0 19.0136 0.833089 21.8326 2.28166 24.2393L16 48L29.7183 24.2393Z" fill="#FFB800"/>
<circle cx="16" cy="16" r="12" fill="white"/>
<mask id="mask0_1632_8782" style="mask-type:alpha" maskUnits="userSpaceOnUse" x="6" y="6" width="20" height="20">
<rect x="6" y="6" width="20" height="20" fill="#D9D9D9"/>
</mask>
<g mask="url(#mask0_1632_8782)">
<path d="M16 20.5513L11.25 22.5785C11.0855 22.6426 10.9314 22.6573 10.7877 22.6226C10.644 22.5879 10.5219 22.5203 10.4215 22.4199C10.3211 22.3194 10.2535 22.1946 10.2188 22.0452C10.1841 21.8959 10.2014 21.7403 10.2709 21.5785L15.3093 10.2405C15.3715 10.0899 15.4679 9.97687 15.5985 9.90155C15.7292 9.82623 15.8629 9.78857 15.9998 9.78857C16.1367 9.78857 16.2705 9.82623 16.4012 9.90155C16.5319 9.97687 16.6284 10.0899 16.6907 10.2405L21.7291 21.5785C21.7985 21.7403 21.8159 21.8959 21.7812 22.0452C21.7464 22.1946 21.6789 22.3194 21.5784 22.4199C21.478 22.5203 21.356 22.5879 21.2123 22.6226C21.0686 22.6573 20.9145 22.6426 20.7499 22.5785L16 20.5513ZM11.9166 20.9167L16 19.1667L20.0833 20.9167L16 11.7501L11.9166 20.9167Z" fill="#FFB800"/>
</g>
</svg>
