<svg width="20" height="20" viewBox="0 0 20 20" fill="none" xmlns="http://www.w3.org/2000/svg">
<mask id="mask0_768_37724" style="mask-type:alpha" maskUnits="userSpaceOnUse" x="0" y="0" width="20" height="20">
<rect width="20" height="20" fill="#D9D9D9"/>
</mask>
<g mask="url(#mask0_768_37724)">
<path d="M10.0001 13.9422C10.1909 13.9422 10.3507 13.8777 10.4797 13.7487C10.6087 13.6197 10.6732 13.4598 10.6732 13.2691C10.6732 13.0784 10.6087 12.9186 10.4797 12.7896C10.3507 12.6606 10.1909 12.5961 10.0001 12.5961C9.80943 12.5961 9.64958 12.6606 9.52058 12.7896C9.39158 12.9186 9.32708 13.0784 9.32708 13.2691C9.32708 13.4598 9.39158 13.6197 9.52058 13.7487C9.64958 13.8777 9.80943 13.9422 10.0001 13.9422ZM10.0004 10.8973C10.1776 10.8973 10.326 10.8374 10.4456 10.7176C10.5653 10.5979 10.6251 10.4494 10.6251 10.2724V6.52232C10.6251 6.34525 10.5652 6.19682 10.4454 6.07702C10.3255 5.95723 10.177 5.89734 9.99987 5.89734C9.82271 5.89734 9.6743 5.95723 9.55464 6.07702C9.43499 6.19682 9.37516 6.34525 9.37516 6.52232V10.2724C9.37516 10.4494 9.43508 10.5979 9.55491 10.7176C9.67476 10.8374 9.82326 10.8973 10.0004 10.8973ZM10.0015 17.9165C8.90659 17.9165 7.8774 17.7088 6.91395 17.2932C5.9505 16.8777 5.11243 16.3137 4.39975 15.6013C3.68705 14.889 3.12284 14.0513 2.7071 13.0882C2.29136 12.1252 2.0835 11.0962 2.0835 10.0013C2.0835 8.90635 2.29127 7.87715 2.70683 6.91371C3.12239 5.95025 3.68634 5.11218 4.3987 4.3995C5.11108 3.68681 5.94878 3.12259 6.91181 2.70686C7.87482 2.29112 8.9038 2.08325 9.99875 2.08325C11.0937 2.08325 12.1229 2.29103 13.0863 2.70659C14.0498 3.12214 14.8879 3.6861 15.6005 4.39846C16.3132 5.11084 16.8774 5.94854 17.2932 6.91157C17.7089 7.87458 17.9168 8.90356 17.9168 9.9985C17.9168 11.0934 17.709 12.1226 17.2935 13.0861C16.8779 14.0495 16.3139 14.8876 15.6016 15.6003C14.8892 16.313 14.0515 16.8772 13.0885 17.2929C12.1255 17.7087 11.0965 17.9165 10.0015 17.9165ZM10.0001 16.6666C11.8613 16.6666 13.4376 16.0207 14.7293 14.7291C16.021 13.4374 16.6668 11.861 16.6668 9.9999C16.6668 8.13879 16.021 6.5624 14.7293 5.27073C13.4376 3.97907 11.8613 3.33323 10.0001 3.33323C8.13903 3.33323 6.56264 3.97907 5.27098 5.27073C3.97931 6.5624 3.33348 8.13879 3.33348 9.9999C3.33348 11.861 3.97931 13.4374 5.27098 14.7291C6.56264 16.0207 8.13903 16.6666 10.0001 16.6666Z" fill="#F42F2F"/>
</g>
</svg>
