<svg width="28" height="28" viewBox="0 0 28 28" fill="none" xmlns="http://www.w3.org/2000/svg">
<mask id="mask0_475_2488" style="mask-type:alpha" maskUnits="userSpaceOnUse" x="0" y="0" width="28" height="28">
<rect width="28" height="28" fill="#D9D9D9"/>
</mask>
<g mask="url(#mask0_475_2488)">
<path d="M7.02676 20.1744C8.01842 19.4385 9.09871 18.8575 10.2676 18.4312C11.4365 18.0049 12.6806 17.7917 13.9998 17.7917C15.319 17.7917 16.5631 18.0049 17.732 18.4312C18.9009 18.8575 19.9812 19.4385 20.9729 20.1744C21.6983 19.3772 22.273 18.4543 22.6971 17.4058C23.1211 16.3573 23.3331 15.2221 23.3331 14.0001C23.3331 11.4139 22.4241 9.21186 20.6061 7.3938C18.788 5.57575 16.5859 4.66672 13.9998 4.66672C11.4137 4.66672 9.21161 5.57575 7.39356 7.3938C5.5755 9.21186 4.66647 11.4139 4.66647 14.0001C4.66647 15.2221 4.8785 16.3573 5.30254 17.4058C5.72659 18.4543 6.30132 19.3772 7.02676 20.1744ZM13.9998 14.875C12.9349 14.875 12.0367 14.5093 11.3053 13.7779C10.5739 13.0465 10.2082 12.1483 10.2082 11.0834C10.2082 10.0184 10.5739 9.12026 11.3053 8.38885C12.0367 7.65745 12.9349 7.29175 13.9998 7.29175C15.0648 7.29175 15.9629 7.65745 16.6943 8.38885C17.4257 9.12026 17.7914 10.0184 17.7914 11.0834C17.7914 12.1483 17.4257 13.0465 16.6943 13.7779C15.9629 14.5093 15.0648 14.875 13.9998 14.875ZM13.9998 25.0834C12.4607 25.0834 11.017 24.7939 9.66859 24.2151C8.32019 23.6362 7.14717 22.848 6.14951 21.8503C5.15188 20.8527 4.36364 19.6797 3.7848 18.3313C3.20593 16.9829 2.9165 15.5392 2.9165 14.0001C2.9165 12.4609 3.20593 11.0172 3.7848 9.66883C4.36364 8.32044 5.15188 7.14741 6.14951 6.14976C7.14717 5.15212 8.32019 4.36388 9.66859 3.78504C11.017 3.20618 12.4607 2.91675 13.9998 2.91675C15.5389 2.91675 16.9827 3.20618 18.331 3.78504C19.6794 4.36388 20.8524 5.15212 21.8501 6.14976C22.8477 7.14741 23.636 8.32044 24.2148 9.66883C24.7937 11.0172 25.0831 12.4609 25.0831 14.0001C25.0831 15.5392 24.7937 16.9829 24.2148 18.3313C23.636 19.6797 22.8477 20.8527 21.8501 21.8503C20.8524 22.848 19.6794 23.6362 18.331 24.2151C16.9827 24.7939 15.5389 25.0834 13.9998 25.0834Z" fill="#8E8E9D"/>
</g>
</svg>
