<svg width="24" height="24" viewBox="0 0 24 24" fill="none" xmlns="http://www.w3.org/2000/svg">
<mask id="mask0_902_7624" style="mask-type:alpha" maskUnits="userSpaceOnUse" x="0" y="0" width="24" height="24">
<rect width="24" height="24" fill="#D9D9D9"/>
</mask>
<g mask="url(#mask0_902_7624)">
<path d="M8.4902 17.8622L11.9999 15.6427L15.5096 17.8914L14.5904 13.686L17.6823 10.8823L13.6155 10.5027L11.9999 6.53082L10.3843 10.4734L6.31753 10.8531L9.40941 13.686L8.4902 17.8622ZM11.9999 17.7027L7.66528 20.4434C7.50387 20.5422 7.34211 20.5838 7.18 20.5681C7.01786 20.5524 6.87109 20.4951 6.73967 20.3962C6.60827 20.2974 6.50686 20.1682 6.43544 20.0087C6.364 19.8492 6.35257 19.6729 6.40115 19.4797L7.55174 14.3195L3.72495 10.8464C3.58211 10.7161 3.49105 10.5652 3.45178 10.3937C3.4125 10.2222 3.42286 10.0556 3.48284 9.89388C3.54284 9.73213 3.62926 9.59996 3.74211 9.49737C3.85496 9.39478 4.00923 9.32777 4.20491 9.29632L9.25517 8.83355L11.2157 3.96087C11.2871 3.77966 11.3953 3.64562 11.5403 3.55875C11.6853 3.47189 11.8385 3.42847 11.9999 3.42847C12.1613 3.42847 12.3145 3.47189 12.4595 3.55875C12.6045 3.64562 12.7127 3.77966 12.7841 3.96087L14.7446 8.83355L19.7949 9.29632C19.9906 9.32777 20.1448 9.39478 20.2577 9.49737C20.3705 9.59996 20.457 9.73213 20.517 9.89388C20.5769 10.0556 20.5873 10.2222 20.548 10.3937C20.5087 10.5652 20.4177 10.7161 20.2748 10.8464L16.448 14.3195L17.5986 19.4797C17.6472 19.6729 17.6358 19.8492 17.5644 20.0087C17.4929 20.1682 17.3915 20.2974 17.2601 20.3962C17.1287 20.4951 16.9819 20.5524 16.8198 20.5681C16.6577 20.5838 16.4959 20.5422 16.3345 20.4434L11.9999 17.7027Z" fill="#9898A7"/>
</g>
</svg>
