<svg width="32" height="32" viewBox="0 0 32 32" fill="none" xmlns="http://www.w3.org/2000/svg">
<mask id="mask0_982_3594" style="mask-type:alpha" maskUnits="userSpaceOnUse" x="0" y="0" width="32" height="32">
<rect width="32" height="32" fill="#D9D9D9"/>
</mask>
<g mask="url(#mask0_982_3594)">
<path d="M16 29C13.747 29 11.906 28.6598 10.4769 27.9794C9.0479 27.2991 8.33337 26.4171 8.33337 25.3333C8.33337 24.6837 8.60644 24.1064 9.15257 23.6013C9.69873 23.0962 10.453 22.6812 11.4154 22.3564L11.9897 24.2615C11.5692 24.4153 11.2162 24.5884 10.9307 24.7807C10.6453 24.973 10.4598 25.1572 10.3743 25.3333C10.5949 25.8085 11.2508 26.2051 12.3423 26.5231C13.4337 26.841 14.653 27 16 27C17.3385 27 18.559 26.841 19.6616 26.5231C20.7642 26.2051 21.4257 25.8085 21.6462 25.3333C21.5607 25.1572 21.3752 24.9752 21.0898 24.7871C20.8043 24.5991 20.4513 24.4239 20.0308 24.2615L20.618 22.3564C21.5804 22.6812 22.3291 23.0962 22.8641 23.6013C23.3991 24.1064 23.6666 24.6837 23.6666 25.3333C23.6666 26.4171 22.9521 27.2991 21.5231 27.9794C20.094 28.6598 18.253 29 16 29ZM16 21.1257C16.4 20.3667 16.8479 19.6304 17.3436 18.9167C17.8393 18.203 18.3368 17.5213 18.8359 16.8718C19.6753 15.7795 20.3458 14.7906 20.8475 13.9051C21.3492 13.0196 21.6 11.9179 21.6 10.6C21.6 9.04783 21.0547 7.72646 19.9641 6.63583C18.8735 5.54523 17.5521 4.99994 16 4.99994C14.4479 4.99994 13.1265 5.54523 12.0359 6.63583C10.9453 7.72646 10.4 9.04783 10.4 10.6C10.4 11.9179 10.653 13.0196 11.159 13.9051C11.665 14.7906 12.3333 15.7795 13.1641 16.8718C13.6632 17.5213 14.1607 18.203 14.6564 18.9167C15.1521 19.6304 15.6 20.3667 16 21.1257ZM16 24.5897C15.7812 24.5897 15.5804 24.5174 15.3974 24.373C15.2146 24.2286 15.0787 24.0427 14.9898 23.8153C14.4445 22.323 13.7957 21.0713 13.0436 20.0602C12.2915 19.0491 11.5658 18.0803 10.8667 17.1538C10.1898 16.2273 9.60943 15.2675 9.12567 14.2743C8.64192 13.2811 8.40004 12.0564 8.40004 10.6C8.40004 8.47177 9.13465 6.67306 10.6039 5.20384C12.0731 3.73461 13.8718 3 16 3C18.1282 3 19.9269 3.73461 21.3961 5.20384C22.8654 6.67306 23.6 8.47177 23.6 10.6C23.6 12.0564 23.3637 13.2811 22.891 14.2743C22.4184 15.2675 21.8325 16.2273 21.1333 17.1538C20.4564 18.0803 19.7363 19.0491 18.9731 20.0602C18.2098 21.0713 17.5556 22.323 17.0102 23.8153C16.9214 24.0427 16.7855 24.2286 16.6026 24.373C16.4197 24.5174 16.2188 24.5897 16 24.5897ZM16 13.0358C16.6752 13.0358 17.25 12.7987 17.7243 12.3243C18.1987 11.8499 18.4359 11.2752 18.4359 10.6C18.4359 9.92477 18.1987 9.34999 17.7243 8.87564C17.25 8.40128 16.6752 8.1641 16 8.1641C15.3248 8.1641 14.75 8.40128 14.2757 8.87564C13.8013 9.34999 13.5641 9.92477 13.5641 10.6C13.5641 11.2752 13.8013 11.8499 14.2757 12.3243C14.75 12.7987 15.3248 13.0358 16 13.0358Z" fill="#121218"/>
</g>
</svg>
