<svg width="24" height="24" viewBox="0 0 24 24" fill="none" xmlns="http://www.w3.org/2000/svg">
<mask id="mask0_61_948" style="mask-type:alpha" maskUnits="userSpaceOnUse" x="0" y="0" width="24" height="24">
<rect width="24" height="24" fill="#D9D9D9"/>
</mask>
<g mask="url(#mask0_61_948)">
<path d="M5.99996 21.5003C5.30126 21.5003 4.70992 21.2583 4.22594 20.7743C3.74197 20.2904 3.49999 19.699 3.49999 19.0003V17.4042C3.49999 17.1465 3.58621 16.9314 3.75866 16.759C3.93109 16.5866 4.14615 16.5003 4.40384 16.5003H6.49998V3.18689C6.49998 3.08305 6.54198 3.0135 6.62596 2.97824C6.70993 2.94299 6.79038 2.95741 6.86731 3.02151L7.60191 3.63111C7.68909 3.70548 7.78333 3.74266 7.88461 3.74266C7.98589 3.74266 8.08012 3.70548 8.16728 3.63111L9.00576 2.94651C9.09294 2.87215 9.18717 2.83496 9.28843 2.83496C9.38972 2.83496 9.48395 2.87215 9.57113 2.94651L10.4096 3.63111C10.4968 3.70548 10.591 3.74266 10.6923 3.74266C10.7936 3.74266 10.8878 3.70548 10.975 3.63111L11.8134 2.94651C11.9006 2.87215 11.9948 2.83496 12.0961 2.83496C12.1974 2.83496 12.2916 2.87215 12.3788 2.94651L13.2173 3.63111C13.3044 3.70548 13.3987 3.74266 13.5 3.74266C13.6012 3.74266 13.6955 3.70548 13.7826 3.63111L14.6211 2.94651C14.7083 2.87215 14.8025 2.83496 14.9038 2.83496C15.0051 2.83496 15.0993 2.87215 15.1865 2.94651L16.025 3.63111C16.1121 3.70548 16.2064 3.74266 16.3076 3.74266C16.4089 3.74266 16.5032 3.70548 16.5903 3.63111L17.4288 2.94651C17.516 2.87215 17.6102 2.83496 17.7115 2.83496C17.8127 2.83496 17.907 2.87215 17.9942 2.94651L18.8326 3.63111C18.9198 3.70548 19.014 3.74266 19.1153 3.74266C19.2166 3.74266 19.3108 3.70548 19.398 3.63111L20.1326 3.02151C20.2095 2.95741 20.29 2.94299 20.374 2.97824C20.4579 3.0135 20.4999 3.08305 20.4999 3.18689V19.0003C20.4999 19.699 20.2579 20.2904 19.774 20.7743C19.29 21.2583 18.6987 21.5003 18 21.5003H5.99996ZM18.0207 19.8086C18.304 19.8086 18.5415 19.7128 18.7332 19.5211C18.9249 19.3295 19 19.2836 19 19.0003V5.00031H7.99996V16.5003H16.0961C16.3538 16.5003 16.5689 16.5866 16.7413 16.759C16.9137 16.9314 17 17.1465 17 17.4042V19.0003C17 19.2836 17.1165 19.3295 17.3082 19.5211C17.4999 19.7128 17.7374 19.8086 18.0207 19.8086ZM9.94226 7.25034H14.1154C14.3282 7.25034 14.5064 7.32213 14.65 7.46571C14.7935 7.6093 14.8653 7.7875 14.8653 8.00031C14.8653 8.21313 14.7935 8.39133 14.65 8.53491C14.5064 8.67849 14.3282 8.75029 14.1154 8.75029H9.94226C9.72944 8.75029 9.55124 8.67849 9.40766 8.53491C9.26408 8.39133 9.19228 8.21313 9.19228 8.00031C9.19228 7.7875 9.26408 7.6093 9.40766 7.46571C9.55124 7.32213 9.72944 7.25034 9.94226 7.25034ZM9.94226 10.2503H14.1154C14.3282 10.2503 14.5064 10.3221 14.65 10.4657C14.7935 10.6093 14.8653 10.7875 14.8653 11.0003C14.8653 11.2131 14.7935 11.3913 14.65 11.5349C14.5064 11.6785 14.3282 11.7503 14.1154 11.7503H9.94226C9.72944 11.7503 9.55124 11.6785 9.40766 11.5349C9.26408 11.3913 9.19228 11.2131 9.19228 11.0003C9.19228 10.7875 9.26408 10.6093 9.40766 10.4657C9.55124 10.3221 9.72944 10.2503 9.94226 10.2503ZM16.9423 8.88491C16.6974 8.88491 16.4887 8.7987 16.3163 8.62626C16.1439 8.45383 16.0577 8.24518 16.0577 8.00031C16.0577 7.75545 16.1439 7.54679 16.3163 7.37436C16.4887 7.20193 16.6974 7.11571 16.9423 7.11571C17.1871 7.11571 17.3958 7.20193 17.5682 7.37436C17.7406 7.54679 17.8269 7.75545 17.8269 8.00031C17.8269 8.24518 17.7406 8.45383 17.5682 8.62626C17.3958 8.7987 17.1871 8.88491 16.9423 8.88491ZM16.9423 11.8849C16.6974 11.8849 16.4887 11.7987 16.3163 11.6263C16.1439 11.4538 16.0577 11.2452 16.0577 11.0003C16.0577 10.7554 16.1439 10.5468 16.3163 10.3744C16.4887 10.2019 16.6974 10.1157 16.9423 10.1157C17.1871 10.1157 17.3958 10.2019 17.5682 10.3744C17.7406 10.5468 17.8269 10.7554 17.8269 11.0003C17.8269 11.2452 17.7406 11.4538 17.5682 11.6263C17.3958 11.7987 17.1871 11.8849 16.9423 11.8849ZM5.99996 20.0003H15.5L15.4999 18.0003H4.99985L4.99996 19.0003C4.99996 19.2836 5.09579 19.5211 5.28746 19.7128C5.47913 19.9045 5.71663 20.0003 5.99996 20.0003Z" fill="#23232D"/>
</g>
</svg>
