<svg width="24" height="24" viewBox="0 0 24 24" fill="none" xmlns="http://www.w3.org/2000/svg">
<mask id="mask0_619_5211" style="mask-type:alpha" maskUnits="userSpaceOnUse" x="0" y="0" width="24" height="24">
<rect width="24" height="24" fill="#D9D9D9"/>
</mask>
<g mask="url(#mask0_619_5211)">
<path d="M16.5154 18.8846H5.24999C5.03749 18.8846 4.85936 18.8127 4.71561 18.6689C4.57186 18.5251 4.49999 18.3469 4.49999 18.1343C4.49999 17.9217 4.57186 17.7436 4.71561 17.6C4.85936 17.4564 5.03749 17.3846 5.24999 17.3846H6.30769V9.92305C6.30769 9.45638 6.3641 8.99278 6.47691 8.53225C6.58973 8.0717 6.75896 7.63274 6.98459 7.21538L8.11919 8.34998C8.01534 8.60421 7.93745 8.86242 7.88551 9.1246C7.8336 9.38677 7.80764 9.65292 7.80764 9.92305V17.3846H15.0846L2.56154 4.89998C2.41667 4.76366 2.34424 4.59016 2.34424 4.37948C2.34424 4.16879 2.41667 3.99102 2.56154 3.84615C2.7064 3.70128 2.88204 3.62885 3.08844 3.62885C3.29485 3.62885 3.4705 3.70128 3.61536 3.84615L20.4038 20.6346C20.5423 20.7731 20.6157 20.9445 20.624 21.149C20.6323 21.3535 20.5582 21.534 20.4017 21.6905C20.2582 21.834 20.0833 21.9057 19.8769 21.9057C19.6705 21.9057 19.4949 21.8333 19.35 21.6884L16.5154 18.8846ZM17.6922 15.0538L16.1923 13.5539V9.92305C16.1923 8.76535 15.783 7.77721 14.9644 6.95863C14.1458 6.14003 13.1577 5.73073 12 5.73073C11.5058 5.73073 11.0307 5.81182 10.5745 5.974C10.1184 6.13618 9.70764 6.37946 9.34224 6.70383L8.25766 5.61923C8.61023 5.31409 8.9958 5.05352 9.41439 4.8375C9.83299 4.62147 10.2782 4.46666 10.75 4.37308V3.75C10.75 3.40278 10.8714 3.10765 11.1142 2.8646C11.3571 2.62153 11.6519 2.5 11.9988 2.5C12.3457 2.5 12.641 2.62153 12.8846 2.8646C13.1281 3.10765 13.2499 3.40278 13.2499 3.75V4.37308C14.5576 4.64871 15.6249 5.30479 16.4519 6.34133C17.2788 7.37786 17.6922 8.57177 17.6922 9.92305V15.0538ZM11.9983 21.6923C11.5007 21.6923 11.0753 21.5153 10.7221 21.1613C10.3689 20.8073 10.1923 20.3817 10.1923 19.8846H13.8076C13.8076 20.3833 13.6305 20.8093 13.2761 21.1625C12.9218 21.5157 12.4958 21.6923 11.9983 21.6923Z" fill="#8E8E9D"/>
</g>
</svg>
