<svg width="28" height="28" viewBox="0 0 28 28" fill="none" xmlns="http://www.w3.org/2000/svg">
<mask id="mask0_619_4982" style="mask-type:alpha" maskUnits="userSpaceOnUse" x="0" y="0" width="28" height="28">
<rect width="28" height="28" fill="#D9D9D9"/>
</mask>
<g mask="url(#mask0_619_4982)">
<path d="M3.71535 14L12.5035 22.7881C12.7353 23.0199 12.8483 23.2929 12.8423 23.607C12.8363 23.9211 12.7174 24.1941 12.4855 24.4259C12.2537 24.6577 11.9808 24.7737 11.6667 24.7737C11.3525 24.7737 11.0796 24.6577 10.8478 24.4259L1.89809 15.4942C1.68716 15.2833 1.53085 15.0469 1.42915 14.7852C1.32746 14.5234 1.27661 14.2617 1.27661 14C1.27661 13.7382 1.32746 13.4765 1.42915 13.2147C1.53087 12.953 1.68718 12.7166 1.89809 12.5057L10.8478 3.55607C11.0796 3.32423 11.3555 3.2113 11.6756 3.21727C11.9957 3.22325 12.2717 3.34217 12.5035 3.574C12.7353 3.80584 12.8513 4.0788 12.8513 4.39289C12.8513 4.70699 12.7353 4.97996 12.5035 5.2118L3.71535 14Z" fill="#8E8E9D"/>
</g>
</svg>
