<svg width="28" height="28" viewBox="0 0 28 28" fill="none" xmlns="http://www.w3.org/2000/svg">
<mask id="mask0_635_4571" style="mask-type:alpha" maskUnits="userSpaceOnUse" x="0" y="0" width="28" height="28">
<rect width="28" height="28" fill="#D9D9D9"/>
</mask>
<g mask="url(#mask0_635_4571)">
<path d="M3.71511 14L12.5033 22.7881C12.7351 23.0199 12.848 23.2929 12.842 23.607C12.836 23.9211 12.7171 24.1941 12.4853 24.4259C12.2535 24.6577 11.9805 24.7737 11.6664 24.7737C11.3523 24.7737 11.0793 24.6577 10.8475 24.4259L1.89785 15.4942C1.68692 15.2833 1.5306 15.0469 1.42891 14.7852C1.32721 14.5234 1.27637 14.2617 1.27637 14C1.27637 13.7382 1.32721 13.4765 1.42891 13.2147C1.53062 12.953 1.68694 12.7166 1.89785 12.5057L10.8475 3.55607C11.0793 3.32423 11.3553 3.2113 11.6754 3.21727C11.9955 3.22325 12.2714 3.34217 12.5033 3.574C12.7351 3.80584 12.851 4.0788 12.851 4.39289C12.851 4.70699 12.7351 4.97996 12.5033 5.2118L3.71511 14Z" fill="#8E8E9D"/>
</g>
</svg>
