<svg width="25" height="24" viewBox="0 0 25 24" fill="none" xmlns="http://www.w3.org/2000/svg">
<mask id="mask0_501_16840" style="mask-type:alpha" maskUnits="userSpaceOnUse" x="0" y="0" width="25" height="24">
<rect x="0.5" width="24" height="24" fill="#D9D9D9"/>
</mask>
<g mask="url(#mask0_501_16840)">
<path d="M17.1269 12.75H5.75C5.53718 12.75 5.35898 12.6782 5.2154 12.5347C5.0718 12.3911 5 12.2129 5 12.0001C5 11.7872 5.0718 11.609 5.2154 11.4655C5.35898 11.3219 5.53718 11.2501 5.75 11.2501H17.1269L11.9577 6.08083C11.809 5.93211 11.7356 5.75808 11.7375 5.55873C11.7394 5.35936 11.8179 5.18212 11.9731 5.027C12.1282 4.88214 12.3038 4.80714 12.5 4.802C12.6961 4.79687 12.8718 4.87187 13.0269 5.027L19.3672 11.3674C19.4608 11.461 19.5269 11.5597 19.5653 11.6635C19.6038 11.7674 19.623 11.8795 19.623 12.0001C19.623 12.1206 19.6038 12.2327 19.5653 12.3366C19.5269 12.4404 19.4608 12.5391 19.3672 12.6327L13.0269 18.9731C12.8884 19.1116 12.717 19.1824 12.5125 19.1856C12.308 19.1888 12.1282 19.118 11.9731 18.9731C11.8179 18.818 11.7404 18.6398 11.7404 18.4385C11.7404 18.2372 11.8179 18.059 11.9731 17.9039L17.1269 12.75Z" fill="#121218"/>
</g>
</svg>
