<svg width="24" height="24" viewBox="0 0 24 24" fill="none" xmlns="http://www.w3.org/2000/svg">
<mask id="mask0_1637_8823" style="mask-type:alpha" maskUnits="userSpaceOnUse" x="0" y="0" width="24" height="24">
<rect width="24" height="24" fill="#D9D9D9"/>
</mask>
<g mask="url(#mask0_1637_8823)">
<path d="M12 17.4617L6.30006 19.8943C6.10262 19.9713 5.91769 19.9889 5.74526 19.9472C5.57282 19.9055 5.42635 19.8245 5.30583 19.7039C5.18533 19.5834 5.10425 19.4336 5.06258 19.2544C5.02091 19.0752 5.04175 18.8885 5.12508 18.6943L11.1712 5.08871C11.2458 4.90793 11.3615 4.77234 11.5183 4.68196C11.6751 4.59158 11.8356 4.54639 11.9998 4.54639C12.164 4.54639 12.3246 4.59158 12.4815 4.68196C12.6383 4.77234 12.7541 4.90793 12.8289 5.08871L18.8749 18.6943C18.9583 18.8885 18.9791 19.0752 18.9374 19.2544C18.8958 19.4336 18.8147 19.5834 18.6942 19.7039C18.5737 19.8245 18.4272 19.9055 18.2548 19.9472C18.0823 19.9889 17.8974 19.9713 17.7 19.8943L12 17.4617ZM7.10001 17.9002L12 15.8002L16.9 17.9002L12 6.90016L7.10001 17.9002Z" fill="#9898A7"/>
</g>
</svg>
