<svg width="32" height="48" viewBox="0 0 32 48" fill="none" xmlns="http://www.w3.org/2000/svg">
<path fill-rule="evenodd" clip-rule="evenodd" d="M29.7183 24.2393C31.1669 21.8326 32 19.0136 32 16C32 7.16341 24.8366 0 16 0C7.16341 0 0 7.16341 0 16C0 19.0136 0.833089 21.8326 2.28166 24.2393L16 48L29.7183 24.2393Z" fill="#FFB800"/>
<circle cx="16" cy="16" r="12" fill="white"/>
<path fill-rule="evenodd" clip-rule="evenodd" d="M12.7076 21.4443V22.1772C12.7076 22.4058 12.6254 22.6001 12.4606 22.76C12.3646 22.8533 12.2567 22.9192 12.1368 22.9583C12.0923 22.9727 12.046 22.9834 11.9982 22.9905C11.9539 22.9968 11.908 23 11.8606 23C11.7505 23 11.6481 22.9824 11.5535 22.9473C11.4462 22.9075 11.3489 22.845 11.2616 22.76C11.0974 22.6001 11.0154 22.4058 11.0154 22.1772V20.8821C10.7651 20.6975 10.5333 20.4365 10.3201 20.0991C10.2795 20.0352 10.2429 19.9697 10.2102 19.9026C10.1736 19.8276 10.1417 19.751 10.1146 19.6724C10.0382 19.4502 10 19.2134 10 18.9614V11.7222C10 10.7808 10.4812 10.0918 11.4437 9.65503C12.4061 9.21826 13.9248 9 15.9998 9C18.1497 9 19.6871 9.20972 20.6123 9.62939C21.5375 10.0491 22 10.7468 22 11.7222V18.9614C22 19.1929 21.9678 19.4116 21.9032 19.6179C21.8503 19.7866 21.776 19.947 21.6799 20.0991C21.4667 20.4365 21.2349 20.6975 20.9846 20.8821V22.1772C20.9846 22.2324 20.9797 22.2856 20.9701 22.3369C20.9633 22.3735 20.954 22.4092 20.9421 22.4438C20.9021 22.561 20.834 22.6665 20.7375 22.76C20.5729 22.9199 20.3728 23 20.1376 23C19.9022 23 19.7025 22.9199 19.5385 22.76C19.3744 22.6001 19.2924 22.4058 19.2924 22.1772V21.4443H12.7076ZM20.8 15.2222V12.3206H11.2V15.2222H20.8ZM13.2018 19.3503C13.4929 19.3503 13.7397 19.2515 13.9423 19.0532C14.0283 18.969 14.0961 18.8772 14.1456 18.7778C14.2126 18.6431 14.2461 18.4944 14.2461 18.3315C14.2461 18.0486 14.1443 17.8086 13.9404 17.6116C13.8221 17.4973 13.6891 17.416 13.5413 17.3682C13.4346 17.3335 13.3202 17.3162 13.1981 17.3162C12.9071 17.3162 12.6603 17.4153 12.4576 17.6135C12.2551 17.8115 12.1538 18.052 12.1538 18.3352C12.1538 18.4036 12.1598 18.4692 12.1716 18.5325C12.178 18.5667 12.186 18.6001 12.1959 18.6328C12.2435 18.7905 12.3314 18.9314 12.4595 19.0549C12.6632 19.252 12.9106 19.3503 13.2018 19.3503ZM18.8019 19.3503C19.0929 19.3503 19.3397 19.2515 19.5424 19.0532C19.7449 18.8552 19.8462 18.6145 19.8462 18.3315C19.8462 18.0486 19.7443 17.8086 19.5405 17.6116C19.4642 17.5381 19.382 17.4783 19.2936 17.4321C19.1455 17.3547 18.9805 17.3162 18.7982 17.3162C18.5071 17.3162 18.2603 17.4153 18.0577 17.6135C17.9572 17.7119 17.8815 17.8206 17.8308 17.9399C17.7795 18.0608 17.7539 18.1926 17.7539 18.3352C17.7539 18.6182 17.8557 18.8582 18.0596 19.0549C18.2633 19.252 18.5107 19.3503 18.8019 19.3503ZM11.4215 11.1538H20.6277C20.4585 10.8437 20.0298 10.6016 19.3416 10.4277C18.6533 10.2537 17.5477 10.1667 16.0247 10.1667C14.5261 10.1667 13.4329 10.2576 12.7446 10.4397C12.0564 10.6216 11.6154 10.8596 11.4215 11.1538ZM12.8 20.2778H19.2C19.64 20.2778 20.0167 20.1255 20.33 19.8208C20.6433 19.5161 20.8 19.1499 20.8 18.7222V16.3889H11.2V18.7222C11.2 19.1499 11.3567 19.5161 11.67 19.8208C11.9833 20.1255 12.36 20.2778 12.8 20.2778Z" fill="#121218"/>
</svg>
