<svg width="28" height="28" viewBox="0 0 28 28" fill="none" xmlns="http://www.w3.org/2000/svg">
<mask id="mask0_475_2487" style="mask-type:alpha" maskUnits="userSpaceOnUse" x="0" y="0" width="28" height="28">
<rect width="28" height="28" fill="#D9D9D9"/>
</mask>
<g mask="url(#mask0_475_2487)">
<path d="M11.1058 18.2179C9.11347 18.2179 7.4263 17.5269 6.04427 16.1448C4.66222 14.7628 3.97119 13.0756 3.97119 11.0833C3.97119 9.09101 4.66222 7.40383 6.04427 6.02178C7.4263 4.63975 9.11347 3.94873 11.1058 3.94873C13.0981 3.94873 14.7852 4.63975 16.1673 6.02178C17.5493 7.40383 18.2404 9.09101 18.2404 11.0833C18.2404 11.9164 18.1005 12.7121 17.8208 13.4705C17.5411 14.2288 17.1679 14.8884 16.7012 15.4493L23.4141 22.1621C23.5756 22.3237 23.6583 22.5267 23.662 22.7713C23.6657 23.0158 23.5831 23.2226 23.4141 23.3916C23.2451 23.5606 23.0402 23.6451 22.7994 23.6451C22.5586 23.6451 22.3536 23.5606 22.1846 23.3916L15.4718 16.6788C14.8884 17.1604 14.2176 17.5373 13.4593 17.8095C12.7009 18.0818 11.9164 18.2179 11.1058 18.2179ZM11.1058 16.4679C12.609 16.4679 13.8822 15.9463 14.9255 14.903C15.9688 13.8598 16.4904 12.5865 16.4904 11.0833C16.4904 9.58009 15.9688 8.30685 14.9255 7.26358C13.8822 6.22031 12.609 5.69867 11.1058 5.69867C9.60256 5.69867 8.32931 6.22031 7.28604 7.26358C6.24279 8.30685 5.72116 9.58009 5.72116 11.0833C5.72116 12.5865 6.24279 13.8598 7.28604 14.903C8.32931 15.9463 9.60256 16.4679 11.1058 16.4679Z" fill="#8E8E9D"/>
</g>
</svg>
