<svg width="24" height="24" viewBox="0 0 24 24" fill="none" xmlns="http://www.w3.org/2000/svg">
<mask id="mask0_619_5212" style="mask-type:alpha" maskUnits="userSpaceOnUse" x="0" y="0" width="24" height="24">
<rect width="24" height="24" fill="#D9D9D9"/>
</mask>
<g mask="url(#mask0_619_5212)">
<path d="M5.25001 18.8846C5.03751 18.8846 4.85938 18.8127 4.71563 18.6689C4.57188 18.5251 4.50001 18.3469 4.50001 18.1343C4.50001 17.9217 4.57188 17.7436 4.71563 17.6C4.85938 17.4564 5.03751 17.3846 5.25001 17.3846H6.30771V9.92305C6.30771 8.57818 6.72277 7.38908 7.55288 6.35575C8.38302 5.32242 9.44872 4.66153 10.75 4.37308V3.75C10.75 3.40278 10.8714 3.10765 11.1143 2.8646C11.3571 2.62153 11.652 2.5 11.9989 2.5C12.3458 2.5 12.641 2.62153 12.8846 2.8646C13.1282 3.10765 13.25 3.40278 13.25 3.75V4.37308C14.5512 4.66153 15.6169 5.32242 16.4471 6.35575C17.2772 7.38908 17.6923 8.57818 17.6923 9.92305V17.3846H18.75C18.9625 17.3846 19.1406 17.4565 19.2843 17.6003C19.4281 17.7441 19.5 17.9223 19.5 18.1349C19.5 18.3475 19.4281 18.5256 19.2843 18.6692C19.1406 18.8128 18.9625 18.8846 18.75 18.8846H5.25001ZM11.9983 21.6923C11.5007 21.6923 11.0753 21.5153 10.7221 21.1613C10.3689 20.8073 10.1923 20.3817 10.1923 19.8846H13.8077C13.8077 20.3833 13.6305 20.8093 13.2762 21.1625C12.9218 21.5157 12.4959 21.6923 11.9983 21.6923ZM7.80766 17.3846H16.1923V9.92305C16.1923 8.76535 15.783 7.77721 14.9644 6.95863C14.1458 6.14003 13.1577 5.73073 12 5.73073C10.8423 5.73073 9.85414 6.14003 9.03556 6.95863C8.21696 7.77721 7.80766 8.76535 7.80766 9.92305V17.3846ZM3.37021 9.91343C3.15419 9.91343 2.97438 9.83234 2.83078 9.67018C2.6872 9.50799 2.62566 9.31729 2.64618 9.09808C2.74746 7.94423 3.04618 6.86346 3.54233 5.85578C4.03848 4.84809 4.68014 3.96348 5.46731 3.20195C5.63269 3.05707 5.81922 2.98495 6.02691 2.9856C6.23459 2.98623 6.40574 3.07277 6.54036 3.2452C6.67497 3.41763 6.73202 3.60513 6.71151 3.8077C6.69099 4.01025 6.59804 4.18909 6.43266 4.34423C5.80831 4.96729 5.30062 5.68556 4.90961 6.49903C4.51857 7.31249 4.27241 8.18781 4.17113 9.12498C4.14421 9.34421 4.05801 9.53043 3.91251 9.68363C3.76699 9.83683 3.58622 9.91343 3.37021 9.91343ZM20.6346 9.91343C20.4153 9.91343 20.233 9.83683 20.0875 9.68363C19.942 9.53043 19.8557 9.34421 19.8288 9.12498C19.7275 8.18781 19.483 7.31409 19.0952 6.50383C18.7074 5.69358 18.2013 4.97691 17.5769 4.35383C17.4093 4.19929 17.3126 4.01899 17.2868 3.81293C17.261 3.60688 17.3154 3.41763 17.45 3.2452C17.5846 3.07277 17.7574 2.98783 17.9683 2.9904C18.1791 2.99297 18.3673 3.06668 18.5327 3.21155C19.3198 3.97308 19.9615 4.85609 20.4576 5.86058C20.9538 6.86506 21.2525 7.94423 21.3538 9.09808C21.3743 9.31729 21.3127 9.50799 21.1689 9.67018C21.0252 9.83234 20.8471 9.91343 20.6346 9.91343Z" fill="#FFB800"/>
</g>
</svg>
