<svg width="32" height="32" viewBox="0 0 32 32" fill="none" xmlns="http://www.w3.org/2000/svg">
<mask id="mask0_982_3581" style="mask-type:alpha" maskUnits="userSpaceOnUse" x="0" y="0" width="32" height="32">
<rect width="32" height="32" fill="#D9D9D9"/>
</mask>
<g mask="url(#mask0_982_3581)">
<path d="M10.5128 25.3333V26.5897C10.5128 26.9814 10.3755 27.3144 10.101 27.5886C9.82652 27.8628 9.4932 27.9999 9.10107 27.9999C8.70891 27.9999 8.37609 27.8628 8.1026 27.5886C7.82909 27.3144 7.69233 26.9814 7.69233 26.5897V24.3692C7.27524 24.0529 6.88892 23.6055 6.53337 23.0269C6.17779 22.4482 6 21.7982 6 21.0769V8.66663C6 7.05277 6.80206 5.87154 8.40617 5.12294C10.0103 4.37431 12.5414 4 15.9995 4C19.5827 4 22.1452 4.35972 23.6871 5.07917C25.229 5.79861 25.9999 6.99443 25.9999 8.66663V21.0769C25.9999 21.7982 25.8221 22.4482 25.4666 23.0269C25.111 23.6055 24.7247 24.0529 24.3076 24.3692V26.5897C24.3076 26.9814 24.1703 27.3144 23.8958 27.5886C23.6213 27.8628 23.288 27.9999 22.8959 27.9999C22.5037 27.9999 22.1709 27.8628 21.8974 27.5886C21.6239 27.3144 21.4872 26.9814 21.4872 26.5897V25.3333H10.5128ZM7.99997 14.6667H24V9.69227H7.99997V14.6667ZM11.3363 21.7435C11.8215 21.7435 12.2329 21.5737 12.5705 21.2341C12.9081 20.8945 13.0769 20.4821 13.0769 19.9969C13.0769 19.5118 12.9071 19.1004 12.5674 18.7628C12.2278 18.4252 11.8154 18.2564 11.3303 18.2564C10.8451 18.2564 10.4337 18.4262 10.0961 18.7658C9.75853 19.1054 9.58973 19.5178 9.58973 20.003C9.58973 20.4882 9.75954 20.8995 10.0992 21.2371C10.4388 21.5747 10.8512 21.7435 11.3363 21.7435ZM20.6697 21.7435C21.1548 21.7435 21.5662 21.5737 21.9038 21.2341C22.2414 20.8945 22.4102 20.4821 22.4102 19.9969C22.4102 19.5118 22.2404 19.1004 21.9008 18.7628C21.5612 18.4252 21.1488 18.2564 20.6636 18.2564C20.1784 18.2564 19.7671 18.4262 19.4295 18.7658C19.0919 19.1054 18.9231 19.5178 18.9231 20.003C18.9231 20.4882 19.0929 20.8995 19.4325 21.2371C19.7721 21.5747 20.1845 21.7435 20.6697 21.7435ZM8.36917 7.6923H23.7128C23.4308 7.16066 22.7162 6.74569 21.5692 6.4474C20.4222 6.14911 18.5795 5.99997 16.041 5.99997C13.5436 5.99997 11.7213 6.15596 10.5743 6.46793C9.4273 6.77989 8.69226 7.18801 8.36917 7.6923ZM10.6666 23.3333H21.3333C22.0666 23.3333 22.6944 23.0722 23.2166 22.55C23.7389 22.0277 24 21.4 24 20.6666V16.6666H7.99997V20.6666C7.99997 21.4 8.26108 22.0277 8.7833 22.55C9.30552 23.0722 9.9333 23.3333 10.6666 23.3333Z" fill="#23232D"/>
</g>
</svg>
