<svg width="32" height="32" viewBox="0 0 32 32" fill="none" xmlns="http://www.w3.org/2000/svg">
<mask id="mask0_619_6541" style="mask-type:alpha" maskUnits="userSpaceOnUse" x="0" y="0" width="32" height="32">
<rect width="32" height="32" fill="#D9D9D9"/>
</mask>
<g mask="url(#mask0_619_6541)">
<path d="M10.5128 26.3333V27.5897C10.5128 27.9814 10.3755 28.3144 10.101 28.5886C9.82652 28.8628 9.4932 28.9999 9.10107 28.9999C8.70891 28.9999 8.37609 28.8628 8.1026 28.5886C7.82909 28.3144 7.69233 27.9814 7.69233 27.5897V25.3692C7.27524 25.0529 6.88892 24.6055 6.53337 24.0269C6.17779 23.4482 6 22.7982 6 22.0769V9.66663C6 8.05277 6.80206 6.87154 8.40617 6.12294C10.0103 5.37431 12.5414 5 15.9995 5C19.5827 5 22.1452 5.35972 23.6871 6.07917C25.229 6.79861 25.9999 7.99443 25.9999 9.66663V22.0769C25.9999 22.7982 25.8221 23.4482 25.4666 24.0269C25.111 24.6055 24.7247 25.0529 24.3076 25.3692V27.5897C24.3076 27.9814 24.1703 28.3144 23.8958 28.5886C23.6213 28.8628 23.288 28.9999 22.8959 28.9999C22.5037 28.9999 22.1709 28.8628 21.8974 28.5886C21.6239 28.3144 21.4872 27.9814 21.4872 27.5897V26.3333H10.5128ZM7.99997 15.6667H24V10.6923H7.99997V15.6667ZM11.3363 22.7435C11.8215 22.7435 12.2329 22.5737 12.5705 22.2341C12.9081 21.8945 13.0769 21.4821 13.0769 20.9969C13.0769 20.5118 12.9071 20.1004 12.5674 19.7628C12.2278 19.4252 11.8154 19.2564 11.3303 19.2564C10.8451 19.2564 10.4337 19.4262 10.0961 19.7658C9.75853 20.1054 9.58973 20.5178 9.58973 21.003C9.58973 21.4882 9.75954 21.8995 10.0992 22.2371C10.4388 22.5747 10.8512 22.7435 11.3363 22.7435ZM20.6697 22.7435C21.1548 22.7435 21.5662 22.5737 21.9038 22.2341C22.2414 21.8945 22.4102 21.4821 22.4102 20.9969C22.4102 20.5118 22.2404 20.1004 21.9008 19.7628C21.5612 19.4252 21.1488 19.2564 20.6636 19.2564C20.1784 19.2564 19.7671 19.4262 19.4295 19.7658C19.0919 20.1054 18.9231 20.5178 18.9231 21.003C18.9231 21.4882 19.0929 21.8995 19.4325 22.2371C19.7721 22.5747 20.1845 22.7435 20.6697 22.7435ZM8.36917 8.6923H23.7128C23.4308 8.16066 22.7162 7.74569 21.5692 7.4474C20.4222 7.14911 18.5795 6.99997 16.041 6.99997C13.5436 6.99997 11.7213 7.15596 10.5743 7.46793C9.4273 7.77989 8.69226 8.18801 8.36917 8.6923ZM10.6666 24.3333H21.3333C22.0666 24.3333 22.6944 24.0722 23.2166 23.55C23.7389 23.0277 24 22.4 24 21.6666V17.6666H7.99997V21.6666C7.99997 22.4 8.26108 23.0277 8.7833 23.55C9.30552 24.0722 9.9333 24.3333 10.6666 24.3333Z" fill="#23232D"/>
</g>
</svg>
