<svg width="32" height="32" viewBox="0 0 32 32" fill="none" xmlns="http://www.w3.org/2000/svg">
<mask id="mask0_739_45703" style="mask-type:alpha" maskUnits="userSpaceOnUse" x="0" y="0" width="32" height="32">
<rect width="32" height="32" fill="#D9D9D9"/>
</mask>
<g mask="url(#mask0_739_45703)">
<path d="M15.0001 28.6V27.2923C12.2223 27.0069 9.88387 25.9146 7.98471 24.0154C6.08558 22.1163 4.99328 19.7778 4.70781 17H3.40011C3.11678 17 2.87929 16.9042 2.68765 16.7124C2.49598 16.5207 2.40015 16.2831 2.40015 15.9996C2.40015 15.7162 2.49598 15.4787 2.68765 15.2873C2.87931 15.0958 3.1168 15.0001 3.40011 15.0001H4.70781C4.99328 12.2223 6.08558 9.88387 7.98471 7.98471C9.88387 6.08558 12.2223 4.99328 15.0001 4.70781V3.40011C15.0001 3.1168 15.096 2.87931 15.2877 2.68765C15.4795 2.49598 15.7171 2.40015 16.0005 2.40015C16.284 2.40015 16.5214 2.49598 16.7129 2.68765C16.9043 2.87931 17 3.1168 17 3.40011V4.70781C19.7778 4.99328 22.1163 6.08558 24.0154 7.98471C25.9146 9.88387 27.0069 12.2223 27.2923 15.0001H28.6C28.8834 15.0001 29.1208 15.096 29.3125 15.2877C29.5042 15.4795 29.6 15.7171 29.6 16.0005C29.6 16.284 29.5042 16.5214 29.3125 16.7129C29.1208 16.9043 28.8834 17 28.6 17H27.2923C27.0069 19.7778 25.9146 22.1163 24.0154 24.0154C22.1163 25.9146 19.7778 27.0069 17 27.2923V28.6C17 28.8834 16.9042 29.1209 16.7124 29.3125C16.5207 29.5042 16.2831 29.6 15.9996 29.6C15.7162 29.6 15.4787 29.5042 15.2873 29.3125C15.0958 29.1208 15.0001 28.8834 15.0001 28.6ZM16.0001 25.3334C18.5779 25.3334 20.7779 24.4223 22.6001 22.6001C24.4223 20.7779 25.3334 18.5779 25.3334 16.0001C25.3334 13.4223 24.4223 11.2223 22.6001 9.40008C20.7779 7.57786 18.5779 6.66675 16.0001 6.66675C13.4223 6.66675 11.2223 7.57786 9.40008 9.40008C7.57786 11.2223 6.66675 13.4223 6.66675 16.0001C6.66675 18.5779 7.57786 20.7779 9.40008 22.6001C11.2223 24.4223 13.4223 25.3334 16.0001 25.3334ZM16.0001 20.6667C14.7168 20.6667 13.6182 20.2098 12.7043 19.2959C11.7904 18.382 11.3334 17.2834 11.3334 16.0001C11.3334 14.7168 11.7904 13.6182 12.7043 12.7043C13.6182 11.7904 14.7168 11.3334 16.0001 11.3334C17.2834 11.3334 18.382 11.7904 19.2959 12.7043C20.2098 13.6182 20.6667 14.7168 20.6667 16.0001C20.6667 17.2834 20.2098 18.382 19.2959 19.2959C18.382 20.2098 17.2834 20.6667 16.0001 20.6667ZM16.0001 18.6667C16.7334 18.6667 17.3612 18.4056 17.8834 17.8834C18.4056 17.3612 18.6667 16.7334 18.6667 16.0001C18.6667 15.2667 18.4056 14.639 17.8834 14.1167C17.3612 13.5945 16.7334 13.3334 16.0001 13.3334C15.2667 13.3334 14.639 13.5945 14.1167 14.1167C13.5945 14.639 13.3334 15.2667 13.3334 16.0001C13.3334 16.7334 13.5945 17.3612 14.1167 17.8834C14.639 18.4056 15.2667 18.6667 16.0001 18.6667Z" fill="#121218"/>
</g>
</svg>
