<svg width="24" height="24" viewBox="0 0 24 24" fill="none" xmlns="http://www.w3.org/2000/svg">
<mask id="mask0_135_34257" style="mask-type:alpha" maskUnits="userSpaceOnUse" x="0" y="0" width="24" height="24">
<rect width="24" height="24" fill="#D9D9D9"/>
</mask>
<g mask="url(#mask0_135_34257)">
<path d="M16.0788 12.4788L14.9557 11.3558C15.1057 10.5275 14.8695 9.78298 14.2471 9.1221C13.6246 8.4612 12.8608 8.20575 11.9557 8.35575L10.8327 7.2327C11.0583 7.13142 11.2897 7.05546 11.5269 7.00483C11.7641 6.95417 12.0237 6.92885 12.3057 6.92885C13.4403 6.92885 14.4035 7.32468 15.1951 8.11635C15.9868 8.90802 16.3826 9.87115 16.3826 11.0057C16.3826 11.2878 16.3573 11.5506 16.3067 11.7942C16.256 12.0378 16.1801 12.266 16.0788 12.4788ZM19.2596 15.5904L18.1557 14.5557C18.7891 14.0724 19.3516 13.5432 19.8432 12.9682C20.3349 12.3932 20.7557 11.7391 21.1057 11.0057C20.2724 9.32242 19.0766 7.98492 17.5182 6.99325C15.9599 6.00158 14.2224 5.50575 12.3057 5.50575C11.8224 5.50575 11.3474 5.53908 10.8807 5.60575C10.4141 5.67242 9.95573 5.77242 9.50573 5.90575L8.34037 4.7404C8.97242 4.48912 9.61793 4.30386 10.2769 4.18463C10.9359 4.06539 11.6121 4.00577 12.3057 4.00577C14.5288 4.00577 16.5519 4.59487 18.3749 5.77307C20.198 6.95127 21.5717 8.49422 22.4961 10.4019C22.5397 10.4788 22.5698 10.5702 22.5865 10.6759C22.6031 10.7817 22.6115 10.8916 22.6115 11.0057C22.6115 11.1199 22.6006 11.2298 22.5788 11.3355C22.557 11.4413 22.5294 11.5327 22.4961 11.6096C22.1256 12.3891 21.6688 13.1131 21.1259 13.7817C20.5829 14.4503 19.9608 15.0532 19.2596 15.5904ZM19.5403 20.848L16.0211 17.3595C15.5083 17.5493 14.94 17.7044 14.3163 17.825C13.6926 17.9455 13.0224 18.0057 12.3057 18.0057C10.0698 18.0057 8.04517 17.4166 6.2317 16.2384C4.41825 15.0602 3.04614 13.5173 2.11537 11.6096C2.07179 11.5327 2.04167 11.4413 2.025 11.3355C2.00833 11.2298 2 11.1199 2 11.0057C2 10.8916 2.00833 10.7843 2.025 10.6837C2.04167 10.583 2.07179 10.4942 2.11537 10.4173C2.49102 9.64807 2.94616 8.93717 3.48077 8.2846C4.01539 7.63203 4.59039 7.05191 5.20577 6.54422L2.94807 4.27112C2.80961 4.13266 2.73877 3.96119 2.73557 3.75672C2.73237 3.55224 2.80833 3.37243 2.96345 3.2173C3.10832 3.07243 3.28396 3 3.49037 3C3.69677 3 3.87241 3.07243 4.01728 3.2173L20.5942 19.7942C20.7326 19.9326 20.806 20.1041 20.8144 20.3086C20.8227 20.5131 20.7493 20.6929 20.5942 20.848C20.4493 20.9929 20.2737 21.0653 20.0673 21.0653C19.8609 21.0653 19.6852 20.9929 19.5403 20.848ZM6.2596 7.59802C5.7314 8.01854 5.21762 8.524 4.71825 9.1144C4.21888 9.70478 3.81471 10.3352 3.50572 11.0057C4.33906 12.6891 5.53489 14.0266 7.09323 15.0182C8.65156 16.0099 10.3891 16.5057 12.3057 16.5057C12.7609 16.5057 13.2141 16.4673 13.6654 16.3904C14.1167 16.3134 14.4994 16.234 14.8135 16.1519L13.548 14.8557C13.3775 14.9249 13.1801 14.9801 12.9557 15.0211C12.7314 15.0621 12.5147 15.0826 12.3057 15.0826C11.1711 15.0826 10.208 14.6868 9.41633 13.8951C8.62466 13.1035 8.22883 12.1403 8.22883 11.0057C8.22883 10.8032 8.24934 10.5913 8.29037 10.3702C8.33141 10.149 8.38653 9.94676 8.45575 9.76342L6.2596 7.59802Z" fill="#121218"/>
</g>
</svg>
