<svg width="36" height="36" viewBox="0 0 36 36" fill="none" xmlns="http://www.w3.org/2000/svg">
<mask id="mask0_902_5026" style="mask-type:alpha" maskUnits="userSpaceOnUse" x="0" y="0" width="36" height="36">
<rect width="36" height="36" fill="#D9D9D9"/>
</mask>
<g mask="url(#mask0_902_5026)">
<path d="M16.875 19.1249H9.375C9.05625 19.1249 8.78906 19.0171 8.57344 18.8014C8.35781 18.5857 8.25 18.3184 8.25 17.9995C8.25 17.6806 8.35781 17.4134 8.57344 17.1981C8.78906 16.9827 9.05625 16.875 9.375 16.875H16.875V9.375C16.875 9.05625 16.9828 8.78906 17.1985 8.57344C17.4143 8.35781 17.6816 8.25 18.0005 8.25C18.3194 8.25 18.5865 8.35781 18.8019 8.57344C19.0172 8.78906 19.1249 9.05625 19.1249 9.375V16.875H26.6249C26.9437 16.875 27.2109 16.9829 27.4265 17.1986C27.6421 17.4143 27.7499 17.6816 27.7499 18.0005C27.7499 18.3194 27.6421 18.5865 27.4265 18.8019C27.2109 19.0172 26.9437 19.1249 26.6249 19.1249H19.1249V26.6249C19.1249 26.9437 19.0171 27.2109 18.8014 27.4265C18.5856 27.6421 18.3183 27.7499 17.9995 27.7499C17.6806 27.7499 17.4134 27.6421 17.1981 27.4265C16.9827 27.2109 16.875 26.9437 16.875 26.6249V19.1249Z" fill="white"/>
</g>
</svg>
