<svg width="25" height="24" viewBox="0 0 25 24" fill="none" xmlns="http://www.w3.org/2000/svg">
<mask id="mask0_1552_15601" style="mask-type:alpha" maskUnits="userSpaceOnUse" x="0" y="0" width="25" height="24">
<rect x="0.5" width="24" height="24" fill="#D9D9D9"/>
</mask>
<g mask="url(#mask0_1552_15601)">
<path d="M12.5005 21.75C10.8107 21.75 9.42996 21.4948 8.35816 20.9846C7.28638 20.4743 6.75049 19.8128 6.75049 19C6.75049 18.5128 6.95529 18.0798 7.36489 17.7009C7.7745 17.3221 8.3402 17.0109 9.06199 16.7673L9.49274 18.1961C9.17736 18.3115 8.91261 18.4413 8.69851 18.5855C8.48441 18.7298 8.34531 18.8679 8.28121 19C8.4466 19.3564 8.93858 19.6538 9.75716 19.8923C10.5758 20.1308 11.4902 20.25 12.5005 20.25C13.5043 20.25 14.4197 20.1308 15.2466 19.8923C16.0736 19.6538 16.5697 19.3564 16.7351 19C16.671 18.8679 16.5319 18.7314 16.3178 18.5903C16.1037 18.4493 15.8389 18.3179 15.5236 18.1961L15.9639 16.7673C16.6857 17.0109 17.2473 17.3221 17.6485 17.7009C18.0498 18.0798 18.2504 18.5128 18.2504 19C18.2504 19.8128 17.7145 20.4743 16.6428 20.9846C15.571 21.4948 14.1902 21.75 12.5005 21.75ZM12.5005 15.8442C12.8005 15.275 13.1364 14.7228 13.5082 14.1875C13.88 13.6522 14.253 13.141 14.6274 12.6538C15.2569 11.8346 15.7598 11.0929 16.1361 10.4288C16.5123 9.76472 16.7005 8.93844 16.7005 7.94998C16.7005 6.78587 16.2915 5.79484 15.4736 4.97688C14.6556 4.15893 13.6646 3.74995 12.5005 3.74995C11.3364 3.74995 10.3453 4.15893 9.52736 4.97688C8.70941 5.79484 8.30044 6.78587 8.30044 7.94998C8.30044 8.93844 8.49019 9.76472 8.86969 10.4288C9.24917 11.0929 9.75045 11.8346 10.3735 12.6538C10.7479 13.141 11.121 13.6522 11.4928 14.1875C11.8646 14.7228 12.2005 15.275 12.5005 15.8442ZM12.5005 18.4422C12.3364 18.4422 12.1857 18.3881 12.0485 18.2797C11.9114 18.1714 11.8095 18.032 11.7428 17.8615C11.3338 16.7422 10.8473 15.8035 10.2832 15.0451C9.71906 14.2868 9.17483 13.5602 8.65046 12.8653C8.14278 12.1705 7.70753 11.4506 7.34471 10.7057C6.9819 9.96086 6.80049 9.04227 6.80049 7.94998C6.80049 6.35383 7.35145 5.00479 8.45336 3.90288C9.55528 2.80096 10.9043 2.25 12.5005 2.25C14.0966 2.25 15.4456 2.80096 16.5476 3.90288C17.6495 5.00479 18.2004 6.35383 18.2004 7.94998C18.2004 9.04227 18.0232 9.96086 17.6687 10.7057C17.3142 11.4506 16.8748 12.1705 16.3505 12.8653C15.8428 13.5602 15.3027 14.2868 14.7303 15.0451C14.1578 15.8035 13.6671 16.7422 13.2581 17.8615C13.1915 18.032 13.0896 18.1714 12.9524 18.2797C12.8152 18.3881 12.6646 18.4422 12.5005 18.4422ZM12.5005 9.77687C13.0069 9.77687 13.4379 9.59899 13.7937 9.24322C14.1495 8.88746 14.3274 8.45637 14.3274 7.94998C14.3274 7.44357 14.1495 7.01249 13.7937 6.65673C13.4379 6.30096 13.0069 6.12308 12.5005 6.12308C11.9941 6.12308 11.563 6.30096 11.2072 6.65673C10.8514 7.01249 10.6736 7.44357 10.6736 7.94998C10.6736 8.45637 10.8514 8.88746 11.2072 9.24322C11.563 9.59899 11.9941 9.77687 12.5005 9.77687Z" fill="#9898A7"/>
</g>
</svg>
